<svg xmlns="http://www.w3.org/2000/svg" width="32" height="32" viewBox="0 0 32 32">
  <g id="git" transform="translate(-1106 -2817)">
    <rect id="Rectangle_23" data-name="Rectangle 23" width="32" height="32" transform="translate(1106 2817)" fill="#f05033"/>
    <path id="iconfinder_git-branch_298785" d="M12.8,67.2a3.191,3.191,0,0,0-1.6,5.957V73.6A3.134,3.134,0,0,1,8,76.8a6.771,6.771,0,0,0-3.2.72V69.957a3.2,3.2,0,1,0-3.2,0V80.444a3.2,3.2,0,1,0,3.944.591A2.976,2.976,0,0,1,8,80c6.35,0,6.4-6.4,6.4-6.4v-.443A3.191,3.191,0,0,0,12.8,67.2ZM3.2,65.6a1.6,1.6,0,1,1-1.6,1.6A1.6,1.6,0,0,1,3.2,65.6Zm0,19.2a1.6,1.6,0,1,1,1.6-1.6A1.6,1.6,0,0,1,3.2,84.8ZM12.8,72a1.6,1.6,0,1,1,1.6-1.6A1.6,1.6,0,0,1,12.8,72Z" transform="translate(1114 2758)" fill="#fff"/>
  </g>
</svg>
