<svg xmlns="http://www.w3.org/2000/svg" width="30" height="24.629" viewBox="0 0 30 24.629">
  <defs>
    <style>
      .cls-1 {
        fill: #a7a7a7;
      }
    </style>
  </defs>
  <g id="icon-github" transform="translate(1159.228 -1667.22)">
    <path id="Path_39" data-name="Path 39" class="cls-1" d="M-1129.35,1679.224h.019a.1.1,0,0,0,.1-.085.1.1,0,0,0-.083-.121,23.619,23.619,0,0,0-5.925-.518,12.066,12.066,0,0,0,.358-2.877,6.512,6.512,0,0,0-1.745-4.634c.413-2.309-.069-3.359-.293-3.72-.827-.294-2.877.757-4,1.5a14.8,14.8,0,0,0-7.132.138c-2.67-1.912-4.083-1.619-4.083-1.619a5.63,5.63,0,0,0-.241,4.031,5.42,5.42,0,0,0-1.533,4.013,9.856,9.856,0,0,0,.453,3.167,31.86,31.86,0,0,0-5.7.524.1.1,0,0,0-.076.125.1.1,0,0,0,.1.078.1.1,0,0,0,.025,0,31.927,31.927,0,0,1,5.724-.517,6.239,6.239,0,0,0,.252.579,18.311,18.311,0,0,0-5.7.925l-.3.075a.1.1,0,0,0-.076.125.1.1,0,0,0,.1.079.1.1,0,0,0,.025,0l.3-.076a18.312,18.312,0,0,1,5.756-.921c1,1.822,2.938,2.956,6.2,3.269a2.788,2.788,0,0,0-1.1,1.8,3.59,3.59,0,0,1-2.679.215c-1.283-.405-1.774-2.946-3.7-2.584-.416.079-.333.353.026.586a3.779,3.779,0,0,1,1.562,1.863,3.151,3.151,0,0,0,3.184,2.16,9.59,9.59,0,0,0,1.465-.1s.017,1.978.017,2.747c0,.887-1.2,1.137-1.2,1.564,0,.169.4.185.715.185.629,0,1.938-.525,1.938-1.447,0-.732.012-3.2.012-3.626a1.387,1.387,0,0,1,.505-1.24s.063,5.028-.121,5.7c-.215.792-.6.68-.6,1.034,0,.526,1.576.129,2.1-1.026.4-.9.227-5.831.227-5.831l.431-.009s.024,2.258.01,3.29c-.015,1.069-.088,2.421.547,3.058.417.419,1.769,1.154,1.769.482,0-.391-.741-.712-.741-1.769v-4.864c.591,0,.5,1.6.5,1.6l.043,2.971a1.515,1.515,0,0,0,1.171,1.536c.459.161,1.442.2,1.488-.065s-1.183-.672-1.194-1.51c-.007-.511.023-.81.023-3.032s-.3-3.044-1.338-3.7c3.209-.33,5.2-1.124,6.163-3.25a23.423,23.423,0,0,1,6.148.978.091.091,0,0,0,.03,0,.1.1,0,0,0,.1-.073.1.1,0,0,0-.069-.13,23.289,23.289,0,0,0-6.12-.984c.075-.185.144-.378.205-.582A23.383,23.383,0,0,1-1129.35,1679.224Zm-24.313,3.381c-.128,0-.233-.069-.233-.155s.1-.155.233-.155.233.069.233.155S-1153.535,1682.605-1153.664,1682.605Zm.72.4c-.128,0-.233-.069-.233-.155s.1-.155.233-.155.233.069.233.155S-1152.815,1683-1152.943,1683Zm.208.366c0-.086.1-.155.233-.155s.233.069.233.155-.1.155-.233.155S-1152.736,1683.453-1152.736,1683.368Zm.623.751c-.129,0-.233-.069-.233-.155s.1-.155.233-.155.233.069.233.155S-1151.985,1684.119-1152.113,1684.119Zm.445.561c-.128,0-.233-.069-.233-.155s.1-.155.233-.155.233.069.233.155S-1151.54,1684.68-1151.668,1684.68Zm.592.476c-.128,0-.233-.069-.233-.155s.1-.155.233-.155.233.069.233.155S-1150.948,1685.156-1151.076,1685.156Zm.836.311c-.128,0-.233-.069-.233-.155s.1-.155.233-.155.233.069.233.155S-1150.112,1685.467-1150.24,1685.467Zm.842,0c-.128,0-.233-.069-.233-.155s.1-.155.233-.155.233.069.233.155S-1149.27,1685.467-1149.4,1685.467Zm.842-.134c-.129,0-.233-.069-.233-.155s.1-.155.233-.155.233.069.233.155S-1148.427,1685.333-1148.556,1685.333Zm6.585-3.3c-.694.023-1.413.035-2.138.035s-1.438-.012-2.1-.036c-3.526-.124-5.468-1.612-5.468-4.19a3.359,3.359,0,0,1,.786-2.083,3.926,3.926,0,0,1,3.142-1.3c.092,0,.256.01.589.031.714.044,1.909.119,3.092.119,1.071,0,2.155-.079,2.737-.122.273-.02.382-.028.452-.028,2.864,0,3.884,1.83,3.884,3.542C-1136.991,1679.767-1137.858,1681.9-1141.971,1682.031Z" transform="translate(0 0)"/>
    <path id="Path_40" data-name="Path 40" class="cls-1" d="M-1151.418,1694.343c.555,0,.009-.861,0-1.263C-1151.425,1693.47-1151.974,1694.343-1151.418,1694.343Z" transform="translate(-2.947 -10.078)"/>
    <path id="Path_41" data-name="Path 41" class="cls-1" d="M-1134.6,1689.08a.1.1,0,0,0-.1.1.589.589,0,0,1-.626.482.707.707,0,0,1-.149-.016.818.818,0,0,1-.31-.143c-.017-.012-.034-.026-.049-.039a.841.841,0,0,1-.118-.121.325.325,0,0,1-.081-.164.1.1,0,0,0-.1-.1.1.1,0,0,0-.1.1.313.313,0,0,0,.018.1.653.653,0,0,0,.088.167.989.989,0,0,0,.153.168,1.066,1.066,0,0,0,.209.144.98.98,0,0,0,.325.1.935.935,0,0,0,.121.008.9.9,0,0,0,.542-.175c.02-.015.039-.031.058-.047a.8.8,0,0,0,.1-.105.63.63,0,0,0,.13-.3.472.472,0,0,0,0-.061A.1.1,0,0,0-1134.6,1689.08Z" transform="translate(-8.959 -8.519)"/>
    <path id="Path_42" data-name="Path 42" class="cls-1" d="M-1135.289,1687.815a.361.361,0,0,0,.1.1.366.366,0,0,0,.045.026.36.36,0,0,0,.1.031.361.361,0,0,0,.054,0,.354.354,0,0,0,.2-.061.361.361,0,0,0,.064-.056.352.352,0,0,0,.062-.1.35.35,0,0,0,.031-.138.356.356,0,0,0-.356-.356.355.355,0,0,0-.252.1l-.008.009a.349.349,0,0,0-.047.065.348.348,0,0,0-.042.106.357.357,0,0,0-.007.072.356.356,0,0,0,.007.072A.377.377,0,0,0-1135.289,1687.815Z" transform="translate(-9.306 -7.81)"/>
    <path id="Path_43" data-name="Path 43" class="cls-1" d="M-1141.112,1681.729a1.61,1.61,0,0,0-.235-.237,1.27,1.27,0,0,0-.265-.167,1.06,1.06,0,0,0-.288-.088,1.015,1.015,0,0,0-.151-.011c-.815,0-1.476.985-1.476,2.2s.661,2.062,1.476,2.062a1.166,1.166,0,0,0,.151-.01,1.166,1.166,0,0,0,.288-.076,1.273,1.273,0,0,0,.265-.147,1.476,1.476,0,0,0,.235-.213,1.781,1.781,0,0,0,.2-.272,2.609,2.609,0,0,0,.337-1.343,2.912,2.912,0,0,0-.337-1.4A2.053,2.053,0,0,0-1141.112,1681.729Z" transform="translate(-6.119 -5.459)"/>
    <path id="Path_44" data-name="Path 44" class="cls-1" d="M-1128.983,1681.23c-.815,0-1.476.985-1.476,2.2s.661,2.062,1.476,2.062,1.476-.847,1.476-2.062S-1128.165,1681.23-1128.983,1681.23Z" transform="translate(-11.212 -5.46)"/>
  </g>
</svg>
