<svg xmlns="http://www.w3.org/2000/svg" width="25.776" height="21.112" viewBox="0 0 25.776 21.112">
  <defs>
    <style>
      .cls-1 {
        fill: #a7a7a7;
      }
    </style>
  </defs>
  <g id="icon-twitter" transform="translate(-3.5 -54.172)">
    <path id="Path_1" data-name="Path 1" class="cls-1" d="M3.5,72.914a10.8,10.8,0,0,0,7.732-2.19c-.357-.082-.684-.082-1-.158a5.318,5.318,0,0,1-3.823-3.241c-.036-.087-.128-.194-.046-.281.061-.066.179-.01.265,0a5.777,5.777,0,0,0,1.919-.1c.01-.112-.071-.1-.133-.122a5.208,5.208,0,0,1-3.44-2.8,4.87,4.87,0,0,1-.541-2.1c-.01-.291.005-.3.276-.168a5.309,5.309,0,0,0,2.087.515,8.026,8.026,0,0,1-.939-.837,5.293,5.293,0,0,1-1.378-3.21,5.442,5.442,0,0,1,.567-2.833c.1-.2.184-.184.306-.036A14.449,14.449,0,0,0,8.3,58.042a15.216,15.216,0,0,0,2.6,1.449,15.493,15.493,0,0,0,3.751,1.087c.408.066.827.082,1.24.122.209.02.265-.041.225-.255a5.056,5.056,0,0,1,.413-3.18A5.155,5.155,0,0,1,20.6,54.235a5.09,5.09,0,0,1,4.4,1.4.573.573,0,0,0,.612.158,11.466,11.466,0,0,0,2.853-1.128c.026-.015.056-.02.148-.056a5.4,5.4,0,0,1-2.195,2.833,4.476,4.476,0,0,0,1.439-.235,13.108,13.108,0,0,0,1.388-.48c.061.066.005.1-.02.138a10.387,10.387,0,0,1-2.1,2.235c-.112.087-.219.184-.337.265a.221.221,0,0,0-.087.225,15.174,15.174,0,0,1-.163,2.766,14.9,14.9,0,0,1-.684,2.736,16.29,16.29,0,0,1-.914,2.128,15.408,15.408,0,0,1-3.465,4.456,14.074,14.074,0,0,1-5.2,2.919,15.067,15.067,0,0,1-3.721.663,16.454,16.454,0,0,1-2.924-.087,14.628,14.628,0,0,1-4.012-1.1,19.058,19.058,0,0,1-1.9-.97A.345.345,0,0,1,3.5,72.914Z" transform="translate(0 0)"/>
  </g>
</svg>
