<svg xmlns="http://www.w3.org/2000/svg" width="20.778" height="20.778" viewBox="0 0 20.778 20.778">
  <defs>
    <style>
      .cls-1 {
        fill: #a7a7a7;
      }
    </style>
  </defs>
  <path id="icon-dribbble" class="cls-1" d="M10.389,20.778a10.389,10.389,0,1,1,10.389-10.39A10.4,10.4,0,0,1,10.389,20.778Zm8.761-8.967a13,13,0,0,0-5.528-.379,38.022,38.022,0,0,1,1.723,6.327A8.887,8.887,0,0,0,19.151,11.811Zm-5.295,6.76a36.97,36.97,0,0,0-1.893-6.729l-.059.02A12.166,12.166,0,0,0,4.942,17.4a8.86,8.86,0,0,0,8.914,1.167ZM3.8,16.336A14.079,14.079,0,0,1,11.01,10.48c.115-.039.232-.073.349-.106-.223-.5-.465-1.009-.719-1.506A32.724,32.724,0,0,1,1.52,10.131c0,.091-.005.18-.005.271A8.839,8.839,0,0,0,3.8,16.336ZM1.7,8.585a33.038,33.038,0,0,0,8.2-1.08,56.216,56.216,0,0,0-3.29-5.132A8.9,8.9,0,0,0,1.7,8.585Zm6.607-6.81A47.409,47.409,0,0,1,11.62,6.969a10.014,10.014,0,0,0,4.652-3.205,8.871,8.871,0,0,0-7.963-1.99Zm8.948,3.016A11.823,11.823,0,0,1,12.3,8.29c.206.423.4.852.589,1.285.065.153.129.306.191.458a20.816,20.816,0,0,1,6.18.284A8.835,8.835,0,0,0,17.258,4.791Z"/>
</svg>
