<svg xmlns="http://www.w3.org/2000/svg" width="32" height="32" viewBox="0 0 32 32">
  <g id="laravel" transform="translate(-1106 -2789)">
    <rect id="box" width="32" height="32" transform="translate(1106 2789)" fill="#f35045"/>
    <path id="Path_59" data-name="Path 59" d="M49.409,106.1c-.154-.176-2.306-2.867-2.684-3.323s-.565-.375-.8-.342-2.956.492-3.271.543-.514.18-.319.452c.173.242,1.96,2.779,2.357,3.337l-7.112,1.7-5.661-9.454c-.224-.334-.272-.452-.786-.426s-4.439.349-4.718.375-.587.147-.308.808,4.736,10.265,4.861,10.544a.954.954,0,0,0,1.2.551c.775-.187,3.462-.889,4.931-1.274.775,1.406,2.357,4.255,2.651,4.663.389.547.661.455,1.259.272.47-.143,7.328-2.611,7.637-2.735s.5-.217.29-.529c-.154-.228-1.964-2.651-2.911-3.921.65-.173,2.959-.786,3.205-.855.29-.073.331-.213.173-.389Zm-12.931,2.643c-.084.018-4.068.973-4.281,1.021s-.213.026-.239-.048-4.736-9.792-4.8-9.913-.062-.217,0-.217,3.763-.33,3.892-.338.117.022.165.1c0,0,5.221,9.01,5.309,9.168S36.563,108.723,36.478,108.741Zm11.235,2.107c.062.1.128.165-.073.235s-6.744,2.28-6.869,2.335-.228.073-.389-.165-2.291-3.921-2.291-3.921l6.932-1.8c.173-.055.228-.092.338.081S47.65,110.75,47.713,110.849Zm.444-4.923c-.154.033-2.7.664-2.7.664l-2.082-2.856c-.059-.084-.106-.165.04-.184s2.511-.448,2.618-.47.2-.055.33.125,1.931,2.46,2,2.548-.051.136-.206.173Z" transform="translate(1084 2698.414)" fill="#fff"/>
  </g>
</svg>
