<svg id="photoshop" xmlns="http://www.w3.org/2000/svg" width="32" height="32" viewBox="0 0 32 32">
  <g id="Photoshop_1_">
    <rect id="Rectangle_19" data-name="Rectangle 19" width="32" height="32" fill="none"/>
    <path id="Photoshop-2" data-name="Photoshop" d="M6.982,7.226c0-.1.2-.176.32-.176.931-.044,2.313-.073,3.753-.073,4.029,0,5.6,2.226,5.6,5.066,0,3.719-2.676,5.315-5.964,5.315-.553,0-.742-.029-1.134-.029v5.622c0,.117-.044.176-.175.176H7.157c-.116,0-.174-.044-.174-.176V7.226ZM9.571,15c.335.029.6.029,1.178.029,1.7,0,3.3-.6,3.3-2.928,0-1.859-1.149-2.8-3.084-2.8-.582,0-1.135.029-1.4.044V15ZM22.08,13.259c-1.149,0-1.542.586-1.542,1.069,0,.527.262.893,1.8,1.7,2.284,1.113,3,2.181,3,3.748,0,2.343-1.774,3.6-4.174,3.6a6.292,6.292,0,0,1-2.982-.629c-.1-.044-.116-.117-.116-.234V20.36c0-.146.073-.191.174-.117a5.373,5.373,0,0,0,2.924.864c1.149,0,1.629-.483,1.629-1.142,0-.527-.334-1-1.8-1.757-2.066-1-2.924-2.006-2.924-3.69,0-1.889,1.469-3.455,4.014-3.455a6.646,6.646,0,0,1,2.6.41.325.325,0,0,1,.146.293v2.006c0,.117-.073.191-.218.146A4.888,4.888,0,0,0,22.08,13.259ZM1.5,0h29A1.5,1.5,0,0,1,32,1.5v29A1.5,1.5,0,0,1,30.5,32H1.5A1.5,1.5,0,0,1,0,30.5V1.5A1.5,1.5,0,0,1,1.5,0Z" fill="#2861d3" fill-rule="evenodd"/>
  </g>
</svg>
