<svg xmlns="http://www.w3.org/2000/svg" width="32" height="32" viewBox="0 0 32 32">
  <g id="react" transform="translate(-1106 -2767)">
    <rect id="Rectangle_22" data-name="Rectangle 22" width="32" height="32" transform="translate(1106 2767)" fill="#00c9ed"/>
    <g id="iconfinder_React.js_logo_1174949" transform="translate(1094.5 2724.788)">
      <circle id="Ellipse_19" data-name="Ellipse 19" cx="1.68" cy="1.68" r="1.68" transform="translate(26.223 56.878)" fill="#fff"/>
      <g id="Group_5" data-name="Group 5" transform="translate(18.5 54.743)">
        <path id="Path_48" data-name="Path 48" d="M27.9,193.263a19.017,19.017,0,0,1-5.963-.806,7.576,7.576,0,0,1-2.456-1.315,2.379,2.379,0,0,1-.984-1.727c0-1.111,1.218-2.2,3.263-2.908A19.341,19.341,0,0,1,27.9,185.6a19.168,19.168,0,0,1,6.057.89,7.7,7.7,0,0,1,2.376,1.252,2.281,2.281,0,0,1,.967,1.673c0,1.154-1.362,2.322-3.557,3.049A19.306,19.306,0,0,1,27.9,193.263Zm0-6.86a18.784,18.784,0,0,0-5.873.86c-1.881.656-2.724,1.553-2.724,2.152,0,.622.907,1.6,2.895,2.282a18.284,18.284,0,0,0,5.7.763,18.428,18.428,0,0,0,5.588-.76c2.065-.686,3.008-1.667,3.008-2.286a1.559,1.559,0,0,0-.679-1.057,6.887,6.887,0,0,0-2.122-1.111A18.522,18.522,0,0,0,27.9,186.4Z" transform="translate(-18.5 -185.6)" fill="#fff"/>
      </g>
      <g id="Group_6" data-name="Group 6" transform="translate(22.136 50.212)">
        <path id="Path_49" data-name="Path 49" d="M129.115,66.931a1.764,1.764,0,0,1-.9-.221c-.96-.556-1.3-2.155-.89-4.28a21.174,21.174,0,0,1,6.077-10.571,7.639,7.639,0,0,1,2.272-1.432,2.281,2.281,0,0,1,1.931,0c1,.576,1.332,2.342.863,4.6a19.38,19.38,0,0,1-2.225,5.461,19.088,19.088,0,0,1-3.678,4.762A7.584,7.584,0,0,1,130.2,66.72,3.262,3.262,0,0,1,129.115,66.931Zm.84-10.069.348.2a18.7,18.7,0,0,0-2.189,5.518c-.371,1.958-.013,3.136.5,3.433a.99.99,0,0,0,.5.114,5.028,5.028,0,0,0,2.925-1.479,18.3,18.3,0,0,0,3.51-4.558,18.529,18.529,0,0,0,2.135-5.22c.438-2.132.06-3.437-.479-3.748a1.565,1.565,0,0,0-1.255.06,6.834,6.834,0,0,0-2.021,1.285,18.449,18.449,0,0,0-3.627,4.6Z" transform="translate(-127.159 -50.212)" fill="#fff"/>
      </g>
      <g id="Group_7" data-name="Group 7" transform="translate(22.14 50.229)">
        <path id="Path_50" data-name="Path 50" d="M136.859,67.408a5.507,5.507,0,0,1-3.269-1.586,19.288,19.288,0,0,1-3.858-4.859h0a19.207,19.207,0,0,1-2.266-5.689,7.677,7.677,0,0,1-.107-2.684,2.277,2.277,0,0,1,.964-1.677c1-.579,2.694.017,4.421,1.553a19.326,19.326,0,0,1,3.617,4.655,19.011,19.011,0,0,1,2.289,5.565,7.65,7.65,0,0,1,.094,2.784,2.379,2.379,0,0,1-1,1.717A1.719,1.719,0,0,1,136.859,67.408Zm-6.432-6.847a18.711,18.711,0,0,0,3.688,4.651c1.509,1.3,2.707,1.579,3.226,1.278.539-.311.934-1.586.525-3.648a18.323,18.323,0,0,0-2.2-5.317,18.526,18.526,0,0,0-3.457-4.457c-1.626-1.446-2.945-1.77-3.484-1.459a1.561,1.561,0,0,0-.576,1.118,6.844,6.844,0,0,0,.1,2.393,18.427,18.427,0,0,0,2.172,5.441Z" transform="translate(-127.284 -50.696)" fill="#fff"/>
      </g>
    </g>
  </g>
</svg>
