<svg xmlns="http://www.w3.org/2000/svg" width="32" height="32" viewBox="0 0 32 32">
  <g id="sass" transform="translate(-1106 -2781)">
    <rect id="Rectangle_21" data-name="Rectangle 21" width="32" height="32" transform="translate(1106 2781)" fill="#cf649a"/>
    <path id="iconfinder_sass_4691373" d="M115.039,90.2a4.312,4.312,0,0,1-.034,2.52l-.091.253c-.034.086-.073.169-.11.247a4.731,4.731,0,0,1-.78,1.139c-.981,1.067-2.351,1.472-2.939,1.132-.633-.368-.318-1.877.821-3.079a11.48,11.48,0,0,1,2.981-2.122v0Zm13.936-15.272c-.762-3-5.733-3.985-10.436-2.313a23.638,23.638,0,0,0-8,4.594c-2.591,2.42-3,4.529-2.833,5.411.6,3.109,4.861,5.142,6.613,6.651v.008c-.516.253-4.3,2.15-5.183,4.113-.949,2.067.148,3.545.865,3.733a5.331,5.331,0,0,0,5.716-2.319,5.832,5.832,0,0,0,.568-5.169,6.561,6.561,0,0,1,2.573-.146c2.954.337,3.545,2.194,3.417,2.953a2.028,2.028,0,0,1-.948,1.327c-.211.128-.274.169-.255.255.021.127.128.127.3.105a2.34,2.34,0,0,0,1.6-2.068c.063-1.814-1.668-3.837-4.746-3.8a7.6,7.6,0,0,0-2.636.36.509.509,0,0,0-.148-.148c-1.9-2.046-5.421-3.48-5.273-6.2.042-.991.4-3.605,6.749-6.769,5.21-2.6,9.366-1.877,10.083-.3,1.031,2.255-2.216,6.454-7.637,7.064a4.068,4.068,0,0,1-3.418-.865c-.294-.316-.336-.337-.442-.273-.169.084-.063.359,0,.527a3.247,3.247,0,0,0,1.963,1.54,10.368,10.368,0,0,0,6.328-.633c3.268-1.264,5.82-4.788,5.082-7.741Z" transform="translate(1003.333 2712.197)" fill="#fff"/>
  </g>
</svg>
