<svg id="xd" xmlns="http://www.w3.org/2000/svg" width="32" height="32" viewBox="0 0 32 32">
  <g id="Group_3" data-name="Group 3">
    <path id="Path_46" data-name="Path 46" d="M323.036,230.294c0,3.575,2.268,3.9,3,3.9a2.992,2.992,0,0,0,1.058-.137v-7.449a1.391,1.391,0,0,0-.834-.175C325.64,226.432,323.036,226.719,323.036,230.294Z" transform="translate(-302.846 -212.28)" fill="#e900d2"/>
    <path id="Path_47" data-name="Path 47" d="M0,0V32H32V0ZM13.86,24l-3.023-6.256L7.849,24H5.065l4.129-8.158L5.207,7.875H8.024L11,14.015l2.936-6.14H16.67l-4.053,7.871L16.873,24Zm13.078-.809a7.13,7.13,0,0,1-4,.941c-3.7,0-5.431-2.59-5.431-6.015a5.785,5.785,0,0,1,5.94-6.18h.808V7.875h2.688V23.191Z" fill="#e900d2"/>
  </g>
</svg>
